<svg xmlns="http://www.w3.org/2000/svg" width="929" height="280"><path fill="#A4E6DE" fill-rule="evenodd" d="M851.3 261.5c4-.4 7.7-1.9 11.4-3a33.3 33.3 0 0 1-11.4 3zm-736-6.5h.6c5-.8 10.3-1.5 15.3-2.5-2.5 1.7-5.7 2-8.8 2.6-3.2.6-6.4.2-9.6.2.8.2 1.5-.3 2.5-.3zm659.5-134.3c-2.4.9-6.8 1.6-8.2-.6l-1.4-1.7a39 39 0 0 0 9.6 2.3zm-507 96.6a27.4 27.4 0 0 1-11.6 1.3c4 0 7.9-.2 11.6-1.3zm525-256h.1c-8-2-16.4-2.8-24-5.4 7 4.2 14.1 8 24 5.4zM455.2 49.9zM927 174.6c4.9-18.1 2.7-20.2-22.5-20.2-3 0-6.2.8-7.6-2l8.6-2.8c3.9.2 4.1-1.7 4.4-3.7 11.5-8.4 7-19.4 8-29.5a137 137 0 0 0 2.2-40c1.8-2.9-.2-4.8-2.2-6.8-.8-5.8 3-14.4-12.6-11.6-14.2 1-11-6.7-11.4-12.6 5.2-8.8-1.3-18.9 6-27.3 14.1-12 12-26 9.2-40.4 2.8-6 3.6-12 .1-18 0-24-7.2-30.5-28-28.8-10-1.3-19.8-3.6-30.1-2.3l3 2.3v.2c-.9-1-2-1.7-3-2.5-.8-.3-1.7-.5-2.6-.1-15.2-3.4-30.7-2.3-46.1-2.1-33.6-1.5-66.8 1.5-100.1 4.1-16.8 3.4-34.9-.4-51.3 4.8-21.4-5.4-41.4 2.7-62 3.8-12.8.5-26.3-2.3-38.2 3.1-27.2-.7-53.1 5-79.5 8.4-12.8 4.1-27 .2-39.9 4.5-.6-.4-1.2-.2-1.8.2l-45.7 2.8c-15.3-.6-30.4-.6-45.4 1.9l-3.1.1a125.7 125.7 0 0 1-39.3 2.5c-13.5-.4-26.6 1.3-39.5 4-12.4.6-24.4 2.3-36.3 4.5h-3c-8.8.6-17.2 1.7-28.7 5.8 14-1.5 14-1.5 16.3 2.8-9.7 3.4-21 1-30.7 4.7-7.5 0-15-.4-22 2-7 0-14.4-.1-15.8 7-1.4 8.1-3 16.3-4.6 24.2H126l-14.8 3c-6.3 0-13-1.5-18.7 1.8l-5.4.6c-4.5-.2-9-1.1-12.7 1.8-3.1.2-7-.7-8.7 2.1-2.6 1-3.3 2.8-3.3 4.7l-2.6.1c-2 0-5.7-.1-5.8.2-1.2 3.2 5.1 3.6 5.3 6.6-3.1 2-9.3 1.4-9.9 5.6 0 .3 4.6.9 7 1.4l2.9 3.6c-3.3 3.2.7 3.5 3 4.5l6.1 2.4-11.8 19.7c-1 2-2 4-3 5.6.5 1.7.7 3.4 3.5 3.8 1.7 4.3 3.7 8.7 11.3 9.3v3.5c-2.7 1.2-3.5 2.3 0 3.4l5.8 4c-3 .8-6.5.8-8 3.6l5.4 1.5c4.9 0 9.9 0 14.8-.3-5 0-10 .1-14.8.3 4 1 7.8 2.3 11.8 3.4-6 .7-13-.2-17.2 5.4 12.7.2 23.6-3.2 35.2-4.7l.5 4.1c-3.3 6.4-13.2 6.7-18.3 11.2-5 3.4-12 2.8-17.7 4.7-4.7 2.6-11-.8-15.5 2.4v-.2c-8.2.8-17-2.4-24.4 2.3l-9 2.6c-3 0-6.6-1.3-8.4 1.6-.6 2.3-5.8 1.7-5.2 4.5 1.7 7.3 5.1 14.7-3.3 21-.7.6 3 4.2 4.7 6 1 2.1 2 4.3 3.2 6.2.4 4.1-2.2 8.2 2.5 11.6l3.4 4.4c3 5.5-6.3 14.8 9.8 15.7l5.4 2.8c5.6 2 11.2.6 16.7-.2.5 0 .8.4 1.5.6 2 .3 4 .3 5.8-.8l5.5-.2c6.3 1.2 13.6-1.8 19 2.7 0 .7-.2 1.4-.6 2-1.1 4.1-1.4 8 .4 12.1h-.1l-.3-12.1c-4.7 4.3-1.9 9.3-2.2 14.2-5.4 4.8 1.2 9.7-.2 14.7 2.3 3.7 2.3 7.6 0 11.4l-.6 4.5c-4 8 8.6 2.2 9.4 6.1-7 7.5-3.1 10 7.6 9.1 5.2-.5 10.5-1.4 15.6-2.2 12.8 2.8 25.8 3.2 38.9 2.2l.9.2c10-2.4 20.6 0 30.8-1.5v-.1c1-.2 2.2.3 3.4 0l-.6-1.2h1.2l5.7-1.8c-2.9-1-5.3-1.5-5.7 1.8-.4.2-.7.6-.6 1.2 4.8-.4 9.8-.6 14.6-.8 11.4-.4 23 2.4 33.9-1.7l14-.5c9.5-.4 19.4 2.2 28.5-1.7a71 71 0 0 1 19.9-.4c9.5-.5 19.5 2.3 28.6-2l8.2-.2c10.4-.8 21.2 2.4 31.2-1.9l26.2-.5c13.5-.6 27.3 2.4 40.6-2l33.1-.3c3.1-.4 6.2-1.1 9.3-1.7 2.1 1.2 4.2 1.7 6.5.2 9.5 1.5 19 1 28.5-.2 3.4 2 7.7 1.3 11.6 1.5 50.2.6 100.4 1.7 150.7 2 33.4.3 67-.8 100.5-1.2 5-.4 10.1-.8 15.2-1.7h2.2c1.7-.7 3.6-.4 5.4-.7 29.6-4.1 62.7 6 89-12.2-1.4-.7-2.6.4-4 .2l1.1-.4c.5-.3 2 .2 3 .2a68 68 0 0 0 27-6.3c5.2-.8 9.4-2.6 11.8-6.2 9.2-7.2.4-17 6.4-24.6 3.4-3.5 1.8-6.9.6-10.6 4.6-6.7 1-13.8 2.4-20.7 2.4-3 .9-6 .3-9.1z"/></svg>