<svg width="439px" height="59px" viewBox="0 0 439 59" aria-hidden="true">
    <defs>
        <path d="M27.2773438,32.4101562 L27.2773438,39.8867188 C27.2773438,43.4960938 28.1152344,43.9902344 32.1757812,43.9902344 L32.1757812,45 C30.1992188,44.9570312 26.7617188,44.8710938 23.109375,44.8710938 C20.4238281,44.8710938 17.609375,44.9570312 15.2246094,45 L15.2246094,44.1191406 C17.9101562,43.9902344 18.3613281,43.5390625 18.3613281,40.3378906 L18.3613281,18.5097656 C18.3613281,15.3085938 17.8671875,14.8574219 15.2246094,14.7285156 L15.2246094,13.8476562 C16.9003906,13.9335938 19.9941406,13.9765625 22.8085938,13.9765625 C25.7519531,13.9765625 28.7382812,13.890625 29.8769531,13.890625 C38.8144531,13.890625 43.1328125,17.4570312 43.1328125,22.5703125 C43.1328125,26.8242188 40.1464844,32.4101562 28.9101562,32.4101562 L27.2773438,32.4101562 Z M29.6621094,14.7285156 C27.6855469,14.7285156 27.2773438,15.4804688 27.2773438,18.5097656 L27.2773438,31.5292969 L28.4804688,31.5292969 C32.9707031,31.5292969 33.8945312,27.5332031 33.8945312,23.0429688 C33.8945312,17.5 32.7773438,14.7285156 29.6621094,14.7285156 Z M55.1425781,21.5390625 C58.2148438,21.5390625 60.6425781,21.9902344 62.3183594,23.7519531 C63.5429688,25.0195312 63.7578125,26.8671875 63.7578125,29.9179688 L63.7578125,41.6914062 C63.7578125,43.109375 63.9511719,43.5820312 64.4238281,43.5820312 C64.9609375,43.5820312 65.390625,43.2382812 65.7988281,42.9375 L66.2285156,43.6894531 C64.8320312,44.8710938 63.0273438,45.3007812 60.5136719,45.3007812 C57.2050781,45.3007812 56.0234375,43.7324219 55.9804688,41.9707031 C54.7558594,43.9902344 52.4140625,45.3007812 49.6855469,45.3007812 C46.1621094,45.3007812 44.1425781,43.28125 44.1425781,40.2519531 C44.1425781,37.265625 45.8613281,35.3105469 49.7285156,34.0429688 C53.1660156,32.8183594 55.8515625,31.9375 55.8515625,29.9609375 L55.8515625,26.0292969 C55.8515625,24.6757812 55.4003906,22.4199219 52.5859375,22.4199219 C51.8339844,22.4199219 50.9101562,22.7421875 50.265625,23.171875 C52.15625,23.8808594 53.2089844,25.1484375 53.2089844,27.1464844 C53.2089844,29.2089844 51.5332031,30.8417969 48.9765625,30.8417969 C46.7851562,30.8417969 45.3671875,29.1660156 45.3671875,26.9960938 C45.3671875,25.1484375 46.5273438,23.7949219 48.0957031,22.9570312 C49.9003906,22.0332031 52.0703125,21.5390625 55.1425781,21.5390625 Z M55.8515625,41.046875 L55.8515625,31.765625 C55.4863281,32.3671875 54.7558594,33.0761719 54.1328125,33.6992188 C52.8222656,34.9667969 51.984375,36.5136719 51.984375,38.6621094 C51.984375,40.9609375 52.9511719,41.7773438 54.21875,41.7773438 C54.8417969,41.7773438 55.3144531,41.6054688 55.8515625,41.046875 Z M103.890625,28.9941406 L103.890625,40.9179688 C103.890625,43.3671875 104.535156,44.0761719 106.339844,44.0761719 L106.339844,45 C105.158203,44.9570312 102.472656,44.828125 100.195312,44.828125 C97.8964844,44.828125 95.4902344,44.9570312 94.3730469,45 L94.3730469,44.0761719 C95.5761719,44.0761719 95.9628906,43.3671875 95.9628906,40.9179688 L95.9628906,26.609375 C95.9628906,24.7617188 95.3398438,23.8378906 93.8144531,23.8378906 C92.2890625,23.8378906 90.7851562,25.3632812 90.5703125,27.0820312 C90.6132812,27.640625 90.6347656,28.2851562 90.6347656,28.9941406 L90.6347656,40.9179688 C90.6347656,43.3671875 91.1289062,44.0761719 92.6757812,44.0761719 L92.6757812,45 C91.5585938,44.9570312 89.0664062,44.828125 86.9394531,44.828125 C84.6621094,44.828125 82.234375,44.9570312 81.1386719,45 L81.1386719,44.0761719 C82.2773438,44.0761719 82.7285156,43.3671875 82.7285156,40.9179688 L82.7285156,26.609375 C82.7285156,24.7617188 82.234375,23.8378906 81.0097656,23.8378906 C79.3769531,23.8378906 77.8300781,25.1484375 77.8300781,26.9960938 L77.8300781,40.9179688 C77.8300781,43.3671875 78.2382812,44.0761719 79.4199219,44.0761719 L79.4199219,45 C78.4101562,44.9570312 76.1757812,44.828125 74.0488281,44.828125 C71.5996094,44.828125 68.7207031,44.9570312 67.453125,45 L67.453125,44.0761719 C69.2578125,44.0761719 69.9238281,43.3671875 69.9238281,40.9179688 L69.9238281,26.953125 C69.9238281,24.3105469 69.3007812,23.0859375 67.453125,23.0859375 L67.453125,22.1621094 C68.3769531,22.2480469 69.3007812,22.2910156 70.1816406,22.2910156 C73.125,22.2910156 75.6386719,22.1191406 77.8300781,21.6894531 L77.8300781,24.8476562 C79.1621094,22.5058594 81.4394531,21.5390625 84.3828125,21.5390625 C87.0683594,21.5390625 88.5292969,22.2910156 89.3671875,23.3007812 C89.796875,23.8164062 90.1191406,24.4824219 90.3125,25.3632812 C91.9238281,22.3984375 94.5019531,21.5390625 97.6386719,21.5390625 C100.324219,21.5390625 101.763672,22.2910156 102.601562,23.3007812 C103.482422,24.3535156 103.890625,25.9863281 103.890625,28.9941406 Z M121.486328,40.8105469 C122.667969,40.8105469 124.880859,40.5527344 126.814453,37.8671875 L127.566406,38.1464844 C126.449219,41.6914062 123.591797,45.6230469 118.371094,45.6230469 C112.720703,45.6230469 108.1875,42.4863281 108.1875,33.6132812 C108.1875,25.1484375 113.128906,21.5390625 119.509766,21.5390625 C124.644531,21.5390625 127.824219,24.3105469 127.824219,31.4003906 L116.458984,31.4003906 C116.416016,31.9160156 116.416016,32.453125 116.416016,32.9902344 C116.416016,39.1992188 119.101562,40.8105469 121.486328,40.8105469 Z M119.1875,22.5703125 C117.640625,22.5703125 116.609375,24.7402344 116.308594,30.5625 L121.400391,30.5625 C121.443359,26.265625 120.820312,22.5703125 119.1875,22.5703125 Z M140.134766,10.5820312 L140.134766,40.9179688 C140.134766,43.3671875 140.800781,44.0761719 142.605469,44.0761719 L142.605469,45 C141.423828,44.9570312 138.824219,44.828125 136.353516,44.828125 C133.882812,44.828125 131.025391,44.9570312 129.757812,45 L129.757812,44.0761719 C131.5625,44.0761719 132.228516,43.3671875 132.228516,40.9179688 L132.228516,15.8671875 C132.228516,13.2246094 131.605469,12 129.757812,12 L129.757812,11.0761719 C130.681641,11.1621094 131.605469,11.2050781 132.486328,11.2050781 C135.429688,11.2050781 137.943359,11.0332031 140.134766,10.5820312 Z M155.367188,21.5390625 C158.439453,21.5390625 160.867188,21.9902344 162.542969,23.7519531 C163.767578,25.0195312 163.982422,26.8671875 163.982422,29.9179688 L163.982422,41.6914062 C163.982422,43.109375 164.175781,43.5820312 164.648438,43.5820312 C165.185547,43.5820312 165.615234,43.2382812 166.023438,42.9375 L166.453125,43.6894531 C165.056641,44.8710938 163.251953,45.3007812 160.738281,45.3007812 C157.429688,45.3007812 156.248047,43.7324219 156.205078,41.9707031 C154.980469,43.9902344 152.638672,45.3007812 149.910156,45.3007812 C146.386719,45.3007812 144.367188,43.28125 144.367188,40.2519531 C144.367188,37.265625 146.085938,35.3105469 149.953125,34.0429688 C153.390625,32.8183594 156.076172,31.9375 156.076172,29.9609375 L156.076172,26.0292969 C156.076172,24.6757812 155.625,22.4199219 152.810547,22.4199219 C152.058594,22.4199219 151.134766,22.7421875 150.490234,23.171875 C152.380859,23.8808594 153.433594,25.1484375 153.433594,27.1464844 C153.433594,29.2089844 151.757812,30.8417969 149.201172,30.8417969 C147.009766,30.8417969 145.591797,29.1660156 145.591797,26.9960938 C145.591797,25.1484375 146.751953,23.7949219 148.320312,22.9570312 C150.125,22.0332031 152.294922,21.5390625 155.367188,21.5390625 Z M156.076172,41.046875 L156.076172,31.765625 C155.710938,32.3671875 154.980469,33.0761719 154.357422,33.6992188 C153.046875,34.9667969 152.208984,36.5136719 152.208984,38.6621094 C152.208984,40.9609375 153.175781,41.7773438 154.443359,41.7773438 C155.066406,41.7773438 155.539062,41.6054688 156.076172,41.046875 Z M208.820312,42.6582031 L209.400391,43.2382812 C207.595703,45.0429688 205.490234,45.6230469 202.804688,45.6230469 C198.958984,45.6230469 196.552734,44.4628906 196.015625,40.8535156 L195.349609,36.4707031 C194.833984,32.8613281 194.082031,30.21875 191.847656,30.21875 L189.849609,30.21875 L189.849609,40.3378906 C189.849609,43.5390625 190.34375,43.9902344 192.986328,44.1191406 L192.986328,45 C191.267578,44.9140625 188.367188,44.8710938 185.638672,44.8710938 C182.458984,44.8710938 179.472656,44.9140625 177.796875,45 L177.796875,44.1191406 C180.482422,43.9902344 180.933594,43.5390625 180.933594,40.3378906 L180.933594,18.5097656 C180.933594,15.3085938 180.439453,14.8574219 177.796875,14.7285156 L177.796875,13.8476562 C179.472656,13.9335938 182.566406,13.9765625 185.380859,13.9765625 C188.324219,13.9765625 191.310547,13.890625 192.449219,13.890625 C201.386719,13.890625 205.705078,16.3613281 205.705078,21.5390625 C205.705078,25.40625 203.341797,29.2519531 194.941406,30.0683594 C200.957031,30.4121094 203.878906,32.2167969 204.566406,35.8046875 L205.490234,40.3808594 C205.919922,42.5722656 206.457031,43.2382812 207.466797,43.2382812 C208.025391,43.2382812 208.433594,43.0664062 208.820312,42.6582031 Z M192.234375,14.7285156 C190.257812,14.7285156 189.849609,15.4804688 189.849609,18.5097656 L189.849609,29.3378906 L191.052734,29.3378906 C195.542969,29.3378906 196.466797,26.0722656 196.466797,22.0332031 C196.466797,17.4140625 195.349609,14.7285156 192.234375,14.7285156 Z M220.271484,21.5390625 C223.34375,21.5390625 225.771484,21.9902344 227.447266,23.7519531 C228.671875,25.0195312 228.886719,26.8671875 228.886719,29.9179688 L228.886719,41.6914062 C228.886719,43.109375 229.080078,43.5820312 229.552734,43.5820312 C230.089844,43.5820312 230.519531,43.2382812 230.927734,42.9375 L231.357422,43.6894531 C229.960938,44.8710938 228.15625,45.3007812 225.642578,45.3007812 C222.333984,45.3007812 221.152344,43.7324219 221.109375,41.9707031 C219.884766,43.9902344 217.542969,45.3007812 214.814453,45.3007812 C211.291016,45.3007812 209.271484,43.28125 209.271484,40.2519531 C209.271484,37.265625 210.990234,35.3105469 214.857422,34.0429688 C218.294922,32.8183594 220.980469,31.9375 220.980469,29.9609375 L220.980469,26.0292969 C220.980469,24.6757812 220.529297,22.4199219 217.714844,22.4199219 C216.962891,22.4199219 216.039062,22.7421875 215.394531,23.171875 C217.285156,23.8808594 218.337891,25.1484375 218.337891,27.1464844 C218.337891,29.2089844 216.662109,30.8417969 214.105469,30.8417969 C211.914062,30.8417969 210.496094,29.1660156 210.496094,26.9960938 C210.496094,25.1484375 211.65625,23.7949219 213.224609,22.9570312 C215.029297,22.0332031 217.199219,21.5390625 220.271484,21.5390625 Z M220.980469,41.046875 L220.980469,31.765625 C220.615234,32.3671875 219.884766,33.0761719 219.261719,33.6992188 C217.951172,34.9667969 217.113281,36.5136719 217.113281,38.6621094 C217.113281,40.9609375 218.080078,41.7773438 219.347656,41.7773438 C219.970703,41.7773438 220.443359,41.6054688 220.980469,41.046875 Z M246.310547,40.8105469 C247.492188,40.8105469 249.705078,40.5527344 251.638672,37.8671875 L252.390625,38.1464844 C251.273438,41.6914062 248.416016,45.6230469 243.195312,45.6230469 C237.544922,45.6230469 233.011719,42.4863281 233.011719,33.6132812 C233.011719,25.1484375 237.953125,21.5390625 244.333984,21.5390625 C249.46875,21.5390625 252.648438,24.3105469 252.648438,31.4003906 L241.283203,31.4003906 C241.240234,31.9160156 241.240234,32.453125 241.240234,32.9902344 C241.240234,39.1992188 243.925781,40.8105469 246.310547,40.8105469 Z M244.011719,22.5703125 C242.464844,22.5703125 241.433594,24.7402344 241.132812,30.5625 L246.224609,30.5625 C246.267578,26.265625 245.644531,22.5703125 244.011719,22.5703125 Z M276.882812,13.2246094 C280.685547,13.2246094 282.533203,14.1484375 284.015625,14.9863281 C284.724609,15.3945312 285.111328,15.609375 285.519531,15.609375 C286.099609,15.609375 286.314453,14.9433594 286.486328,13.6757812 L287.496094,13.6757812 C287.367188,15.5664062 287.28125,17.8007812 287.28125,24.4179688 L286.271484,24.4179688 C285.949219,19.5625 283.177734,14.4277344 278.601562,14.4277344 C276.023438,14.4277344 274.111328,15.8671875 274.111328,18.5097656 C274.111328,21.7753906 276.324219,23.0859375 281.867188,26.953125 C285.777344,29.6816406 289,32.109375 289,36.9003906 C289,42.8515625 283.457031,45.6230469 277.033203,45.6230469 C273.015625,45.6230469 270.867188,44.7851562 269.234375,43.9902344 C268.525391,43.5390625 268.095703,43.3671875 267.751953,43.3671875 C267.171875,43.3671875 266.957031,44.0332031 266.763672,45.3007812 L265.753906,45.3007812 C265.882812,43.0664062 265.947266,40.0800781 265.947266,32.5390625 L266.957031,32.5390625 C267.300781,38.7480469 269.320312,44.2910156 274.949219,44.2910156 C278.171875,44.2910156 280.234375,42.7226562 280.234375,39.9941406 C280.234375,36.3417969 277.548828,34.2148438 273.810547,31.7226562 C269.642578,28.9296875 265.990234,26.3945312 265.990234,21.5390625 C265.990234,15.78125 271.210938,13.2246094 276.882812,13.2246094 Z M303.201172,21.5390625 C305.757812,21.5390625 307.820312,22.1621094 309.001953,22.8710938 C310.591797,23.7949219 311.644531,25.4277344 311.644531,27.4472656 C311.644531,29.8535156 309.882812,31.7226562 307.412109,31.7226562 C304.833984,31.7226562 303.373047,30.0898438 303.373047,27.7480469 C303.373047,25.5566406 305.048828,23.8808594 306.982422,23.34375 C306.574219,23.0429688 306.015625,22.828125 305.220703,22.828125 C301.03125,22.828125 300.107422,28.5859375 300.107422,32.9902344 C300.107422,39.1992188 303.029297,40.8105469 305.607422,40.8105469 C306.810547,40.8105469 309.001953,40.5527344 310.935547,37.8671875 L311.6875,38.1464844 C310.591797,41.6914062 307.734375,45.6230469 302.492188,45.6230469 C296.605469,45.6230469 291.878906,42.4863281 291.878906,33.6132812 C291.878906,25.1484375 296.820312,21.5390625 303.201172,21.5390625 Z M323.869141,10.5820312 L323.869141,24.8476562 C325.287109,22.5058594 327.693359,21.5390625 330.873047,21.5390625 C333.558594,21.5390625 334.998047,22.2910156 335.835938,23.3007812 C336.716797,24.3535156 337.125,25.9863281 337.125,28.9941406 L337.125,40.9179688 C337.125,43.3671875 337.769531,44.0761719 339.574219,44.0761719 L339.574219,45 C338.392578,44.9570312 335.707031,44.828125 333.429688,44.828125 C330.958984,44.828125 328.359375,44.9570312 327.177734,45 L327.177734,44.0761719 C328.660156,44.0761719 329.197266,43.3671875 329.197266,40.9179688 L329.197266,26.609375 C329.197266,24.7617188 328.574219,23.8378906 327.048828,23.8378906 C325.416016,23.8378906 323.869141,25.1484375 323.869141,26.9960938 L323.869141,40.9179688 C323.869141,43.3671875 324.40625,44.0761719 325.888672,44.0761719 L325.888672,45 C324.792969,44.9570312 322.386719,44.828125 320.087891,44.828125 C317.617188,44.828125 314.759766,44.9570312 313.492188,45 L313.492188,44.0761719 C315.296875,44.0761719 315.962891,43.3671875 315.962891,40.9179688 L315.962891,15.8671875 C315.962891,13.2246094 315.339844,12 313.492188,12 L313.492188,11.0761719 C314.416016,11.1621094 315.339844,11.2050781 316.220703,11.2050781 C319.164062,11.2050781 321.677734,11.0332031 323.869141,10.5820312 Z M364.173828,21.6894531 L364.173828,40.2089844 C364.173828,42.8515625 364.796875,44.0761719 366.644531,44.0761719 L366.644531,45 C365.720703,44.9140625 364.796875,44.8710938 363.916016,44.8710938 C360.972656,44.8710938 358.458984,45.0429688 356.267578,45.4941406 L356.267578,42.3144531 C354.849609,44.65625 352.421875,45.6230469 349.263672,45.6230469 C346.578125,45.6230469 345.138672,44.8710938 344.300781,43.8613281 C343.419922,42.8085938 343.011719,41.1757812 343.011719,38.1894531 L343.011719,26.953125 C343.011719,24.3105469 342.410156,23.0859375 340.5625,23.0859375 L340.5625,22.1621094 C341.486328,22.2480469 342.410156,22.2910156 343.291016,22.2910156 C346.234375,22.2910156 348.726562,22.1191406 350.939453,21.6894531 L350.939453,40.5527344 C350.939453,42.4003906 351.5625,43.3242188 353.087891,43.3242188 C354.720703,43.3242188 356.267578,42.0136719 356.267578,40.1660156 L356.267578,26.953125 C356.267578,24.3105469 355.644531,23.0859375 353.796875,23.0859375 L353.796875,22.1621094 C354.720703,22.2480469 355.644531,22.2910156 356.525391,22.2910156 C359.46875,22.2910156 361.982422,22.1191406 364.173828,21.6894531 Z M378.611328,10.5820312 L378.611328,40.9179688 C378.611328,43.3671875 379.277344,44.0761719 381.082031,44.0761719 L381.082031,45 C379.900391,44.9570312 377.300781,44.828125 374.830078,44.828125 C372.359375,44.828125 369.501953,44.9570312 368.234375,45 L368.234375,44.0761719 C370.039062,44.0761719 370.705078,43.3671875 370.705078,40.9179688 L370.705078,15.8671875 C370.705078,13.2246094 370.082031,12 368.234375,12 L368.234375,11.0761719 C369.158203,11.1621094 370.082031,11.2050781 370.962891,11.2050781 C373.90625,11.2050781 376.419922,11.0332031 378.611328,10.5820312 Z M393.048828,10.5820312 L393.048828,40.9179688 C393.048828,43.3671875 393.714844,44.0761719 395.519531,44.0761719 L395.519531,45 C394.337891,44.9570312 391.738281,44.828125 389.267578,44.828125 C386.796875,44.828125 383.939453,44.9570312 382.671875,45 L382.671875,44.0761719 C384.476562,44.0761719 385.142578,43.3671875 385.142578,40.9179688 L385.142578,15.8671875 C385.142578,13.2246094 384.519531,12 382.671875,12 L382.671875,11.0761719 C383.595703,11.1621094 384.519531,11.2050781 385.400391,11.2050781 C388.34375,11.2050781 390.857422,11.0332031 393.048828,10.5820312 Z M410.537109,40.8105469 C411.71875,40.8105469 413.931641,40.5527344 415.865234,37.8671875 L416.617188,38.1464844 C415.5,41.6914062 412.642578,45.6230469 407.421875,45.6230469 C401.771484,45.6230469 397.238281,42.4863281 397.238281,33.6132812 C397.238281,25.1484375 402.179688,21.5390625 408.560547,21.5390625 C413.695312,21.5390625 416.875,24.3105469 416.875,31.4003906 L405.509766,31.4003906 C405.466797,31.9160156 405.466797,32.453125 405.466797,32.9902344 C405.466797,39.1992188 408.152344,40.8105469 410.537109,40.8105469 Z M408.238281,22.5703125 C406.691406,22.5703125 405.660156,24.7402344 405.359375,30.5625 L410.451172,30.5625 C410.494141,26.265625 409.871094,22.5703125 408.238281,22.5703125 Z M434.578125,21.5390625 C437.736328,21.5390625 438.617188,23.9667969 438.617188,25.9863281 C438.617188,28.6289062 436.984375,30.3046875 434.578125,30.3046875 C431.978516,30.3046875 430.646484,29.0371094 430.646484,27.1464844 C430.646484,25.1484375 431.570312,23.9238281 432.902344,23.0429688 C432.408203,23.0429688 431.935547,23.1289062 431.484375,23.34375 C430.044922,23.9667969 428.884766,25.5136719 428.884766,27.2753906 L428.884766,40.4667969 C428.884766,43.28125 430.001953,44.0761719 432.666016,44.0761719 L432.666016,45 C431.3125,44.9570312 428.369141,44.828125 425.554688,44.828125 C422.912109,44.828125 419.861328,44.9570312 418.507812,45 L418.507812,44.0761719 C420.3125,44.0761719 420.978516,43.3671875 420.978516,40.9179688 L420.978516,26.953125 C420.978516,24.3105469 420.355469,23.0859375 418.507812,23.0859375 L418.507812,22.1621094 C419.431641,22.2480469 420.355469,22.2910156 421.236328,22.2910156 C424.179688,22.2910156 426.693359,22.1191406 428.884766,21.6894531 L428.884766,24.8476562 C430.044922,22.6132812 432.021484,21.5390625 434.578125,21.5390625 Z" id="path-1"></path>
    </defs>
    <g id="Page-1" stroke="none" stroke-width="1" fill="none" fill-rule="evenodd">
        <g id="logo" fill-rule="nonzero">
            <path d="M381.945,55.748 C383.765,55.686 385.375,55.438 387.055,55.252 C385.445,55.5 383.8,55.717 381.945,55.748 Z M51.4725,54.6603776 C51.5775,54.6603776 51.6475,54.6603776 51.7525,54.6603776 C54.0275,54.5363776 56.3725,54.4123776 58.6475,54.2573776 C57.5275,54.5363776 56.0575,54.5983776 54.6575,54.6913776 C53.2225,54.7843776 51.7875,54.7223776 50.3525,54.7223776 C50.7375,54.7533776 51.0525,54.6603776 51.4725,54.6603776 Z M347.6525,32.6103527 C346.5675,32.7653527 344.6075,32.8893527 343.9775,32.5173527 C343.8025,32.4243527 343.5225,32.3313527 343.3475,32.2383527 C344.6775,32.4243527 346.1125,32.5483527 347.6525,32.6103527 Z M120.1075,48.3801065 C118.3575,48.5971065 116.7125,48.6591065 114.8925,48.5971065 C116.6775,48.5971065 118.4275,48.5661065 120.1075,48.3801065 Z M355.82,5.87755866 C355.855,5.87755866 355.855,5.87755866 355.89,5.87755866 C355.855,5.87755866 355.82,5.87755866 355.82,5.87755866 C352.285,5.53655866 348.47,5.41255866 345.11,4.97855866 C348.225,5.69155866 351.41,6.31155866 355.82,5.87755866 Z M203.965,20.4864823 C206.345,20.3624823 208.725,20.4244823 211.035,20.5794823 C208.69,20.4554823 206.31,20.3624823 203.965,20.4864823 Z M416.07916,41.4281717 C418.240719,38.4138361 417.248528,38.0720042 405.944636,38.0720042 C404.633526,38.0720042 403.180674,38.1963067 402.542837,37.7301723 C403.818512,37.5747942 405.129621,37.4194161 406.405296,37.264038 C408.14163,37.2951136 408.247937,36.9843573 408.389678,36.6425255 C413.563246,35.2441223 411.507993,33.4106605 412.004089,31.7325767 C413.315199,29.4951318 413.421505,27.2887624 412.960845,25.0513174 C413.775859,24.585183 412.889974,24.2744268 411.968653,23.9325949 C411.6143,22.9692505 413.315199,21.5397718 406.334425,22.0059062 C399.920618,22.1612843 401.338034,20.8871837 401.196292,19.8927637 C403.535028,18.4322093 400.629326,16.7541256 403.853947,15.3557225 C410.232319,13.3358069 409.240128,11.005135 408.035324,8.61231189 C409.275563,7.6178919 409.629917,6.62347191 408.07076,5.62905191 C408.07076,1.62029632 404.846138,0.532649448 395.491193,0.812330072 C391.026332,0.594800698 386.632343,0.221893201 381.990305,0.439422574 C382.450965,0.563725073 382.911626,0.688027572 383.372286,0.812330072 L383.33685,0.843405696 C382.947061,0.688027572 382.450965,0.563725073 381.990305,0.439422574 C381.635951,0.377271324 381.210726,0.3461957 380.820937,0.408346949 C374.01734,-0.151014297 367.036566,0.0354394518 360.126663,0.0665150766 C345.066618,-0.182089922 330.148315,0.315120075 315.194576,0.750178822 C307.646836,1.30954007 299.532129,0.688027572 292.161566,1.55814507 C282.558573,0.656951948 273.593417,1.99320381 264.309342,2.17965756 C258.604243,2.27288444 252.544789,1.80675006 247.194044,2.70794318 C234.968831,2.58364068 223.34602,3.54698505 211.510596,4.1063463 C205.770061,4.79001004 199.356254,4.13742192 193.615719,4.85216129 C193.332236,4.79001004 193.048753,4.82108567 192.800705,4.88323692 C185.961673,5.03861504 179.12264,5.19399317 172.283608,5.34937129 C165.409141,5.25614442 158.640979,5.25614442 151.908253,5.66012754 C151.412158,5.66012754 150.951497,5.66012754 150.490837,5.69120316 C144.714867,6.06411066 138.868026,6.40594253 132.879444,6.09518629 C126.81999,6.03303504 120.937714,6.31271566 115.126308,6.77885003 C109.56295,6.87207691 104.17677,7.15175753 98.8614596,7.52466503 C98.4007994,7.52466503 97.9401392,7.52466503 97.5149144,7.52466503 C93.5461496,7.6178919 89.7545618,7.80434565 84.6164288,8.48800939 C90.8884946,8.2394044 90.8884946,8.2394044 91.9161212,8.95414377 C87.557567,9.51350501 82.4903048,9.10952189 78.167186,9.73103439 C74.800823,9.73103439 71.3990246,9.66888314 68.245274,10.0728663 C65.0915234,10.0728663 61.7960312,10.0417906 61.1936294,11.2226644 C60.5557922,12.5899919 59.8116488,13.9573194 59.1029408,15.2624956 C58.2524912,15.2624956 57.437477,15.2624956 56.551592,15.2624956 C54.3545972,15.4178737 52.122167,15.6043275 49.9251723,15.7597056 C47.0903403,15.7597056 44.1137667,15.5111006 41.5269825,16.0704618 C40.7474037,16.1015375 39.8969541,16.1326131 39.0819399,16.1636887 C37.0621221,16.1326131 35.0423043,15.977235 33.3768405,16.474445 C31.9948599,16.5055206 30.2939607,16.3501425 29.4789465,16.8162768 C28.3095783,16.971655 28.0260951,17.2824112 28.0260951,17.5931675 C27.6363057,17.6242431 27.2110809,17.6242431 26.8212915,17.6242431 C25.9354065,17.6242431 24.3053781,17.5931675 24.2345073,17.6553187 C23.7029763,18.1836043 26.5378083,18.2457556 26.6086791,18.7429656 C25.2266985,19.0847974 22.4273019,18.9915706 22.1792541,19.6752343 C22.1792541,19.7373856 24.2345073,19.8306124 25.2975693,19.9238393 C25.7582295,20.1102931 26.1834543,20.3278224 26.6086791,20.5142762 C25.1558277,21.0425618 26.9275977,21.1047131 27.9906597,21.2600912 C28.8765447,21.3843937 29.7978651,21.5397718 30.7191855,21.6640743 C28.9474155,22.7517212 27.1756455,23.8704437 25.4038755,24.9580905 C24.9432153,25.2688468 24.4825551,25.6106787 24.0218949,25.8903593 C24.2699427,26.1700399 24.3762489,26.4497205 25.6164879,26.5118718 C25.6164879,26.5118718 25.6164879,26.5118718 25.6519233,26.5118718 C26.3960667,27.2266111 27.2819517,27.9724261 30.7191855,28.065653 C30.7191855,28.2521068 30.7191855,28.4385605 30.7191855,28.6560899 C29.4789465,28.8425436 29.1245925,29.0289974 30.7191855,29.2154511 C31.5696351,29.4640561 32.4555201,29.6505099 33.3059697,29.8680393 C31.9948599,30.0234174 30.4002669,30.0234174 29.7269943,30.4895517 C30.5420085,30.5827786 31.3215873,30.6449299 32.1366015,30.7381567 C34.3335963,30.7381567 36.5660265,30.7381567 38.7630213,30.6760055 C36.5660265,30.6760055 34.3335963,30.7070811 32.1366015,30.7381567 C33.9083715,30.8935349 35.6447061,31.1110642 37.4164761,31.297518 C34.7233857,31.4218205 31.5696351,31.2664424 29.7269943,32.1987111 C35.3966583,32.2297867 40.3221789,31.6704255 45.4957473,31.4218205 C45.5666181,31.6393499 45.6374889,31.8879549 45.7437951,32.1054842 C44.2555083,33.1620555 39.8260833,33.2242067 37.5227823,33.9700217 C35.2549167,34.529383 32.1366015,34.4361561 29.5852527,34.7469123 C27.4591287,35.1819711 24.6597321,34.6226098 22.6044789,35.1508955 L22.6044789,35.1198198 C18.9546327,35.2441223 15.0213033,34.7158367 11.6549403,35.4927273 C10.3083951,35.6481055 8.96184991,35.8034836 7.61530472,35.9277861 C6.26875952,35.9277861 4.67416652,35.7102567 3.85915232,36.2074667 C3.57566912,36.5803742 1.23693273,36.4871473 1.52041593,36.9532817 C2.29999472,38.1652311 3.82371692,39.4082561 0.0321291279,40.4648273 C-0.251354072,40.5580542 1.41410973,41.148491 2.15825312,41.4592473 C2.61891332,41.8010792 3.07957352,42.1739867 3.57566912,42.4847429 C3.75284612,43.1684067 2.61891332,43.8520704 4.70960192,44.4114317 C5.24113292,44.6600367 5.73722852,44.9397173 6.23332412,45.1572466 C7.54443392,46.0584398 3.39849212,47.612221 10.6273137,47.7675991 C11.4423279,47.9229773 12.2573421,48.0783554 13.0723563,48.2337335 C15.5882697,48.5755654 18.0687477,48.3269604 20.5492257,48.2026579 C20.7972735,48.2026579 20.9390151,48.2648091 21.2224983,48.2958848 C22.1438187,48.358036 23.0651391,48.358036 23.8447179,48.1715823 C24.6951675,48.1715823 25.5101817,48.1405066 26.3251959,48.1405066 C29.1245925,48.3269604 32.4200847,47.8297504 34.8296919,48.5755654 C34.8296919,48.6998679 34.7233857,48.8241704 34.5462087,48.9173972 C34.0501131,49.601061 33.9438069,50.2536491 34.7233857,50.9373129 C34.7233857,50.9373129 34.7233857,50.9373129 34.6879503,50.9373129 C34.6525149,50.2536491 34.6170795,49.601061 34.5462087,48.9173972 C32.4555201,49.6321366 33.7311945,50.4711785 33.5894529,51.2791447 C31.1444103,52.087111 34.1209839,52.8950772 33.4831467,53.7341191 C34.5107733,54.3556316 34.5107733,55.0082197 33.4831467,55.6297322 C33.3768405,55.8783372 33.3059697,56.1269422 33.2350989,56.3755472 C31.4278935,57.7117991 37.0621221,56.7484547 37.4519115,57.4010428 C34.3335963,58.6440678 36.0344955,59.0791266 40.8537099,58.9237484 C43.1924463,58.8305216 45.5666181,58.6751434 47.8699191,58.5508409 C53.5750184,59.0169753 59.4218594,59.0791266 65.3041358,58.9237484 L65.6939252,58.9548241 C70.2296564,58.5508409 74.978,58.9548241 79.5491666,58.7062191 C79.5491666,58.7062191 79.5137312,58.7062191 79.5137312,58.6751434 C80.0098268,58.6440678 80.5413578,58.7372947 81.0728888,58.6751434 C80.9665826,58.6129922 80.8957118,58.5508409 80.7894056,58.4886897 C80.9665826,58.4886897 81.179195,58.4886897 81.3209366,58.4886897 C82.1713862,58.3643872 83.0218358,58.2711603 83.8722854,58.1779334 C82.596611,58.0225553 81.533549,57.9293284 81.3209366,58.4886897 C81.1437596,58.5197653 81.0374534,58.5819166 81.0728888,58.6751434 C83.2344482,58.6129922 85.4668784,58.5819166 87.6284378,58.5508409 C92.7311354,58.4886897 97.9047038,58.9548241 102.830224,58.2711603 C104.956348,58.2400847 107.011602,58.2090091 109.137726,58.1779334 C113.389974,58.1157822 117.819399,58.5508409 121.89447,57.8982528 C124.835608,57.7117991 127.847617,57.7117991 130.82419,57.8361016 C135.111874,57.7428747 139.61217,58.2090091 143.687241,57.4942697 C144.892044,57.4942697 146.132283,57.4631941 147.372522,57.4631941 C152.049995,57.3388916 156.869209,57.8671772 161.369505,57.1524378 C165.302834,57.1213622 169.236164,57.0902866 173.134058,57.0592109 C179.193511,56.9659841 185.394706,57.4631941 191.347853,56.7484547 C196.308809,56.7173791 201.269765,56.7173791 206.230721,56.6863034 C207.612702,56.6241522 208.994683,56.4998497 210.376663,56.4066228 C211.333419,56.5930766 212.290175,56.6863034 213.282366,56.4376984 C217.570049,56.6863034 221.822297,56.5930766 226.109981,56.4066228 C227.633703,56.7484547 229.547215,56.6241522 231.318985,56.6552278 C253.855899,56.7484547 276.357378,56.9349084 298.929728,56.9970597 C313.954337,57.0281353 329.014382,56.8416816 344.038992,56.7795303 C346.342293,56.7173791 348.610158,56.6552278 350.878024,56.4998497 C351.232378,56.4998497 351.551297,56.4998497 351.870215,56.4998497 C352.649794,56.3755472 353.464808,56.4376984 354.279822,56.3755472 C367.568097,55.6918835 382.450965,57.3699672 394.250954,54.3556316 C393.613116,54.2313291 393.081585,54.4177828 392.443748,54.3867072 C392.620925,54.3556316 392.762667,54.3556316 392.939844,54.324556 C393.152456,54.2624047 393.825729,54.3556316 394.250954,54.3556316 C398.574072,54.2002535 402.82632,54.0448753 406.405296,53.2990603 C408.744032,53.1747578 410.622108,52.8640016 411.720606,52.2735647 C415.831112,51.0616154 411.862347,49.4456829 414.555438,48.1715823 C416.114595,47.5811454 415.370452,47.0217841 414.838921,46.4002716 C416.929609,45.2815491 415.335016,44.1006754 415.901983,42.9508773 C417.00048,42.4536673 416.327208,41.9564573 416.07916,41.4281717 L416.07916,41.4281717 Z" id="Fill-3" fill="#A4E6DE"></path>
            <g id="PamelaRaeSchuller">
                <use fill="#000000" xlink:href="#path-1"></use>
                <use fill="#2C2F41" xlink:href="#path-1"></use>
            </g>
        </g>
    </g>
</svg>