<svg width="439px" height="59px" viewBox="0 0 439 59">
  <g stroke="none" stroke-width="1" fill="none" fill-rule="evenodd">
    <path d="M381.945,55.748 C383.765,55.686 385.375,55.438 387.055,55.252 C385.445,55.5 383.8,55.717 381.945,55.748 Z M51.4725,54.6603776 C51.5775,54.6603776 51.6475,54.6603776 51.7525,54.6603776 C54.0275,54.5363776 56.3725,54.4123776 58.6475,54.2573776 C57.5275,54.5363776 56.0575,54.5983776 54.6575,54.6913776 C53.2225,54.7843776 51.7875,54.7223776 50.3525,54.7223776 C50.7375,54.7533776 51.0525,54.6603776 51.4725,54.6603776 Z M347.6525,32.6103527 C346.5675,32.7653527 344.6075,32.8893527 343.9775,32.5173527 C343.8025,32.4243527 343.5225,32.3313527 343.3475,32.2383527 C344.6775,32.4243527 346.1125,32.5483527 347.6525,32.6103527 Z M120.1075,48.3801065 C118.3575,48.5971065 116.7125,48.6591065 114.8925,48.5971065 C116.6775,48.5971065 118.4275,48.5661065 120.1075,48.3801065 Z M355.82,5.87755866 C355.855,5.87755866 355.855,5.87755866 355.89,5.87755866 C355.855,5.87755866 355.82,5.87755866 355.82,5.87755866 C352.285,5.53655866 348.47,5.41255866 345.11,4.97855866 C348.225,5.69155866 351.41,6.31155866 355.82,5.87755866 Z M203.965,20.4864823 C206.345,20.3624823 208.725,20.4244823 211.035,20.5794823 C208.69,20.4554823 206.31,20.3624823 203.965,20.4864823 Z M416.07916,41.4281717 C418.240719,38.4138361 417.248528,38.0720042 405.944636,38.0720042 C404.633526,38.0720042 403.180674,38.1963067 402.542837,37.7301723 C403.818512,37.5747942 405.129621,37.4194161 406.405296,37.264038 C408.14163,37.2951136 408.247937,36.9843573 408.389678,36.6425255 C413.563246,35.2441223 411.507993,33.4106605 412.004089,31.7325767 C413.315199,29.4951318 413.421505,27.2887624 412.960845,25.0513174 C413.775859,24.585183 412.889974,24.2744268 411.968653,23.9325949 C411.6143,22.9692505 413.315199,21.5397718 406.334425,22.0059062 C399.920618,22.1612843 401.338034,20.8871837 401.196292,19.8927637 C403.535028,18.4322093 400.629326,16.7541256 403.853947,15.3557225 C410.232319,13.3358069 409.240128,11.005135 408.035324,8.61231189 C409.275563,7.6178919 409.629917,6.62347191 408.07076,5.62905191 C408.07076,1.62029632 404.846138,0.532649448 395.491193,0.812330072 C391.026332,0.594800698 386.632343,0.221893201 381.990305,0.439422574 C382.450965,0.563725073 382.911626,0.688027572 383.372286,0.812330072 L383.33685,0.843405696 C382.947061,0.688027572 382.450965,0.563725073 381.990305,0.439422574 C381.635951,0.377271324 381.210726,0.3461957 380.820937,0.408346949 C374.01734,-0.151014297 367.036566,0.0354394518 360.126663,0.0665150766 C345.066618,-0.182089922 330.148315,0.315120075 315.194576,0.750178822 C307.646836,1.30954007 299.532129,0.688027572 292.161566,1.55814507 C282.558573,0.656951948 273.593417,1.99320381 264.309342,2.17965756 C258.604243,2.27288444 252.544789,1.80675006 247.194044,2.70794318 C234.968831,2.58364068 223.34602,3.54698505 211.510596,4.1063463 C205.770061,4.79001004 199.356254,4.13742192 193.615719,4.85216129 C193.332236,4.79001004 193.048753,4.82108567 192.800705,4.88323692 C185.961673,5.03861504 179.12264,5.19399317 172.283608,5.34937129 C165.409141,5.25614442 158.640979,5.25614442 151.908253,5.66012754 C151.412158,5.66012754 150.951497,5.66012754 150.490837,5.69120316 C144.714867,6.06411066 138.868026,6.40594253 132.879444,6.09518629 C126.81999,6.03303504 120.937714,6.31271566 115.126308,6.77885003 C109.56295,6.87207691 104.17677,7.15175753 98.8614596,7.52466503 C98.4007994,7.52466503 97.9401392,7.52466503 97.5149144,7.52466503 C93.5461496,7.6178919 89.7545618,7.80434565 84.6164288,8.48800939 C90.8884946,8.2394044 90.8884946,8.2394044 91.9161212,8.95414377 C87.557567,9.51350501 82.4903048,9.10952189 78.167186,9.73103439 C74.800823,9.73103439 71.3990246,9.66888314 68.245274,10.0728663 C65.0915234,10.0728663 61.7960312,10.0417906 61.1936294,11.2226644 C60.5557922,12.5899919 59.8116488,13.9573194 59.1029408,15.2624956 C58.2524912,15.2624956 57.437477,15.2624956 56.551592,15.2624956 C54.3545972,15.4178737 52.122167,15.6043275 49.9251723,15.7597056 C47.0903403,15.7597056 44.1137667,15.5111006 41.5269825,16.0704618 C40.7474037,16.1015375 39.8969541,16.1326131 39.0819399,16.1636887 C37.0621221,16.1326131 35.0423043,15.977235 33.3768405,16.474445 C31.9948599,16.5055206 30.2939607,16.3501425 29.4789465,16.8162768 C28.3095783,16.971655 28.0260951,17.2824112 28.0260951,17.5931675 C27.6363057,17.6242431 27.2110809,17.6242431 26.8212915,17.6242431 C25.9354065,17.6242431 24.3053781,17.5931675 24.2345073,17.6553187 C23.7029763,18.1836043 26.5378083,18.2457556 26.6086791,18.7429656 C25.2266985,19.0847974 22.4273019,18.9915706 22.1792541,19.6752343 C22.1792541,19.7373856 24.2345073,19.8306124 25.2975693,19.9238393 C25.7582295,20.1102931 26.1834543,20.3278224 26.6086791,20.5142762 C25.1558277,21.0425618 26.9275977,21.1047131 27.9906597,21.2600912 C28.8765447,21.3843937 29.7978651,21.5397718 30.7191855,21.6640743 C28.9474155,22.7517212 27.1756455,23.8704437 25.4038755,24.9580905 C24.9432153,25.2688468 24.4825551,25.6106787 24.0218949,25.8903593 C24.2699427,26.1700399 24.3762489,26.4497205 25.6164879,26.5118718 C25.6164879,26.5118718 25.6164879,26.5118718 25.6519233,26.5118718 C26.3960667,27.2266111 27.2819517,27.9724261 30.7191855,28.065653 C30.7191855,28.2521068 30.7191855,28.4385605 30.7191855,28.6560899 C29.4789465,28.8425436 29.1245925,29.0289974 30.7191855,29.2154511 C31.5696351,29.4640561 32.4555201,29.6505099 33.3059697,29.8680393 C31.9948599,30.0234174 30.4002669,30.0234174 29.7269943,30.4895517 C30.5420085,30.5827786 31.3215873,30.6449299 32.1366015,30.7381567 C34.3335963,30.7381567 36.5660265,30.7381567 38.7630213,30.6760055 C36.5660265,30.6760055 34.3335963,30.7070811 32.1366015,30.7381567 C33.9083715,30.8935349 35.6447061,31.1110642 37.4164761,31.297518 C34.7233857,31.4218205 31.5696351,31.2664424 29.7269943,32.1987111 C35.3966583,32.2297867 40.3221789,31.6704255 45.4957473,31.4218205 C45.5666181,31.6393499 45.6374889,31.8879549 45.7437951,32.1054842 C44.2555083,33.1620555 39.8260833,33.2242067 37.5227823,33.9700217 C35.2549167,34.529383 32.1366015,34.4361561 29.5852527,34.7469123 C27.4591287,35.1819711 24.6597321,34.6226098 22.6044789,35.1508955 L22.6044789,35.1198198 C18.9546327,35.2441223 15.0213033,34.7158367 11.6549403,35.4927273 C10.3083951,35.6481055 8.96184991,35.8034836 7.61530472,35.9277861 C6.26875952,35.9277861 4.67416652,35.7102567 3.85915232,36.2074667 C3.57566912,36.5803742 1.23693273,36.4871473 1.52041593,36.9532817 C2.29999472,38.1652311 3.82371692,39.4082561 0.0321291279,40.4648273 C-0.251354072,40.5580542 1.41410973,41.148491 2.15825312,41.4592473 C2.61891332,41.8010792 3.07957352,42.1739867 3.57566912,42.4847429 C3.75284612,43.1684067 2.61891332,43.8520704 4.70960192,44.4114317 C5.24113292,44.6600367 5.73722852,44.9397173 6.23332412,45.1572466 C7.54443392,46.0584398 3.39849212,47.612221 10.6273137,47.7675991 C11.4423279,47.9229773 12.2573421,48.0783554 13.0723563,48.2337335 C15.5882697,48.5755654 18.0687477,48.3269604 20.5492257,48.2026579 C20.7972735,48.2026579 20.9390151,48.2648091 21.2224983,48.2958848 C22.1438187,48.358036 23.0651391,48.358036 23.8447179,48.1715823 C24.6951675,48.1715823 25.5101817,48.1405066 26.3251959,48.1405066 C29.1245925,48.3269604 32.4200847,47.8297504 34.8296919,48.5755654 C34.8296919,48.6998679 34.7233857,48.8241704 34.5462087,48.9173972 C34.0501131,49.601061 33.9438069,50.2536491 34.7233857,50.9373129 C34.7233857,50.9373129 34.7233857,50.9373129 34.6879503,50.9373129 C34.6525149,50.2536491 34.6170795,49.601061 34.5462087,48.9173972 C32.4555201,49.6321366 33.7311945,50.4711785 33.5894529,51.2791447 C31.1444103,52.087111 34.1209839,52.8950772 33.4831467,53.7341191 C34.5107733,54.3556316 34.5107733,55.0082197 33.4831467,55.6297322 C33.3768405,55.8783372 33.3059697,56.1269422 33.2350989,56.3755472 C31.4278935,57.7117991 37.0621221,56.7484547 37.4519115,57.4010428 C34.3335963,58.6440678 36.0344955,59.0791266 40.8537099,58.9237484 C43.1924463,58.8305216 45.5666181,58.6751434 47.8699191,58.5508409 C53.5750184,59.0169753 59.4218594,59.0791266 65.3041358,58.9237484 L65.6939252,58.9548241 C70.2296564,58.5508409 74.978,58.9548241 79.5491666,58.7062191 C79.5491666,58.7062191 79.5137312,58.7062191 79.5137312,58.6751434 C80.0098268,58.6440678 80.5413578,58.7372947 81.0728888,58.6751434 C80.9665826,58.6129922 80.8957118,58.5508409 80.7894056,58.4886897 C80.9665826,58.4886897 81.179195,58.4886897 81.3209366,58.4886897 C82.1713862,58.3643872 83.0218358,58.2711603 83.8722854,58.1779334 C82.596611,58.0225553 81.533549,57.9293284 81.3209366,58.4886897 C81.1437596,58.5197653 81.0374534,58.5819166 81.0728888,58.6751434 C83.2344482,58.6129922 85.4668784,58.5819166 87.6284378,58.5508409 C92.7311354,58.4886897 97.9047038,58.9548241 102.830224,58.2711603 C104.956348,58.2400847 107.011602,58.2090091 109.137726,58.1779334 C113.389974,58.1157822 117.819399,58.5508409 121.89447,57.8982528 C124.835608,57.7117991 127.847617,57.7117991 130.82419,57.8361016 C135.111874,57.7428747 139.61217,58.2090091 143.687241,57.4942697 C144.892044,57.4942697 146.132283,57.4631941 147.372522,57.4631941 C152.049995,57.3388916 156.869209,57.8671772 161.369505,57.1524378 C165.302834,57.1213622 169.236164,57.0902866 173.134058,57.0592109 C179.193511,56.9659841 185.394706,57.4631941 191.347853,56.7484547 C196.308809,56.7173791 201.269765,56.7173791 206.230721,56.6863034 C207.612702,56.6241522 208.994683,56.4998497 210.376663,56.4066228 C211.333419,56.5930766 212.290175,56.6863034 213.282366,56.4376984 C217.570049,56.6863034 221.822297,56.5930766 226.109981,56.4066228 C227.633703,56.7484547 229.547215,56.6241522 231.318985,56.6552278 C253.855899,56.7484547 276.357378,56.9349084 298.929728,56.9970597 C313.954337,57.0281353 329.014382,56.8416816 344.038992,56.7795303 C346.342293,56.7173791 348.610158,56.6552278 350.878024,56.4998497 C351.232378,56.4998497 351.551297,56.4998497 351.870215,56.4998497 C352.649794,56.3755472 353.464808,56.4376984 354.279822,56.3755472 C367.568097,55.6918835 382.450965,57.3699672 394.250954,54.3556316 C393.613116,54.2313291 393.081585,54.4177828 392.443748,54.3867072 C392.620925,54.3556316 392.762667,54.3556316 392.939844,54.324556 C393.152456,54.2624047 393.825729,54.3556316 394.250954,54.3556316 C398.574072,54.2002535 402.82632,54.0448753 406.405296,53.2990603 C408.744032,53.1747578 410.622108,52.8640016 411.720606,52.2735647 C415.831112,51.0616154 411.862347,49.4456829 414.555438,48.1715823 C416.114595,47.5811454 415.370452,47.0217841 414.838921,46.4002716 C416.929609,45.2815491 415.335016,44.1006754 415.901983,42.9508773 C417.00048,42.4536673 416.327208,41.9564573 416.07916,41.4281717 L416.07916,41.4281717 Z" id="Fill-3" fill="#A4E6DE"></path>
    <text id="Pamela-Rae-Schuller" font-family="PlayfairDisplay-Black, Playfair Display" font-size="44" font-weight="700" fill="#2C2F41">
      <tspan x="14" y="45">Pamela Rae Schuller</tspan>
    </text>
  </g>
</svg>