<svg xmlns="http://www.w3.org/2000/svg" width="40" height="40" viewBox="0 0 40 40">
  <path fill="#2C2F41" d="M14.7546835,0.999647624 C16.3825143,1.00629892 23.8174487,1.06616058 25.7919722,1.60491551 C27.0260494,1.9685751 28.0133112,2.93833398 28.3835344,4.15053258 C28.9680973,6.2176502 28.9988637,10.5694768 29.000483,11.0218377 L29.000483,11.0973372 C28.9988637,11.5385641 28.9680973,15.7876392 28.3835344,17.9695967 C28.0133112,19.1817953 27.0260494,20.1515542 25.7919722,20.3939939 C23.6940409,20.966421 15.4318178,20.9982225 14.5202681,20.9999893 L14.3547346,20.9999833 C13.4403485,20.9981513 5.30396188,20.9657857 3.20835905,20.3939939 C1.97428183,20.1515542 0.987020051,19.1817953 0.616796884,17.9695967 C0.0809475642,15.969469 0.0104410748,12.2323883 0.00116390512,11.2835742 L0.00116390512,10.8310874 C0.0104410748,9.86003838 0.0809475642,6.0453904 0.616796884,4.15053258 C0.987020051,2.93833398 1.97428183,1.9685751 3.20835905,1.60491551 C5.17822571,1.06743123 12.485729,1.00658395 14.1150123,0.999695579 Z M11.6000842,6.71346678 L11.6000842,15.2854426 L19.5753082,10.9994547 L11.6000842,6.71346678 Z" transform="translate(8 12)"/>
</svg>
